<?xml version="1.0" standalone="no"?>
<!DOCTYPE svg PUBLIC "-//W3C//DTD SVG 20010904//EN"
 "http://www.w3.org/TR/2001/REC-SVG-20010904/DTD/svg10.dtd">
<svg version="1.0" xmlns="http://www.w3.org/2000/svg"
 width="16.000000pt" height="16.000000pt" viewBox="0 0 16.000000 16.000000"
 preserveAspectRatio="xMidYMid meet">
<metadata>
Created by potrace 1.11, written by Peter Selinger 2001-2013
</metadata>
<g transform="translate(0.000000,16.000000) scale(0.008000,-0.008000)"
fill="#000000" stroke="none">
<path d="M102 1895 c-4 -5 -7 -142 -7 -302 l0 -293 65 -1 c36 0 171 0 300 0
l234 1 -300 -303 -301 -302 2 -295 c1 -162 3 -297 4 -300 0 -3 135 -6 299 -5
l297 0 5 300 5 300 295 0 295 0 5 -300 5 -300 300 0 300 0 0 303 0 302 -300 0
-299 0 299 300 300 300 0 302 0 303 -303 0 -302 0 0 -300 0 -300 -297 0 -298
0 -5 300 -5 300 -293 0 c-187 0 -296 -3 -300 -10z"/>
</g>
</svg>
