<?xml version="1.0" standalone="no"?>
<!DOCTYPE svg PUBLIC "-//W3C//DTD SVG 20010904//EN"
 "http://www.w3.org/TR/2001/REC-SVG-20010904/DTD/svg10.dtd">
<svg version="1.0" xmlns="http://www.w3.org/2000/svg"
 width="16.000000pt" height="16.000000pt" viewBox="0 0 16.000000 16.000000"
 preserveAspectRatio="xMidYMid meet">
<metadata>
Created by potrace 1.11, written by Peter Selinger 2001-2013
</metadata>
<g transform="translate(0.000000,16.000000) scale(0.004167,-0.004167)"
fill="#000000" stroke="none">
<path d="M267 3582 c-3 -4 -4 -253 -4 -554 l0 -548 549 0 550 0 -550 -549
-549 -549 1 -554 1 -553 553 -1 552 -1 0 549 c0 301 3 549 8 549 4 1 251 2
550 3 l542 1 0 -551 0 -551 548 2 c301 1 550 3 553 3 3 1 6 250 6 552 l0 550
-36 0 c-20 1 -267 1 -550 1 l-513 0 549 550 550 549 -1 553 -1 552 -552 2
-553 1 -2 -551 -3 -551 -535 -1 c-294 0 -541 1 -547 3 -10 3 -13 122 -13 552
l0 548 -550 0 c-302 1 -551 -2 -553 -6z"/>
</g>
</svg>
